<?xml version="1.0" encoding="UTF-8"?>
<svg version="1.1" xmlns="http://www.w3.org/2000/svg" width="300" height="70">
<path d="M0 0 C4.62 0 9.24 0 14 0 C14.33 3.96 14.66 7.92 15 12 C16.32 8.04 17.64 4.08 19 0 C23.29 0 27.58 0 32 0 C30.87476015 6.47012911 29.330537 12.13834259 26.70703125 18.1640625 C24.75604005 25.98958523 28.465331 33.96277698 31.00390625 41.28515625 C31.27332031 42.09339844 31.54273438 42.90164062 31.8203125 43.734375 C32.07055176 44.45850586 32.32079102 45.18263672 32.57861328 45.92871094 C33.06280339 48.30870452 32.80534472 49.72673993 32 52 C30.26150372 53.73849628 27.9213363 53.17216296 25.5625 53.1875 C24.57378906 53.20167969 23.58507812 53.21585938 22.56640625 53.23046875 C20 53 20 53 18 51 C17.28072705 48.68234271 16.6090107 46.34904126 16 44 C15.67 44 15.34 44 15 44 C14.34 46.97 13.68 49.94 13 53 C11.39620659 53.05416188 9.79188594 53.09286638 8.1875 53.125 C7.29417969 53.14820313 6.40085938 53.17140625 5.48046875 53.1953125 C3 53 3 53 0 51 C-0.36076355 48.82333374 -0.36076355 48.82333374 -0.34057617 46.09130859 C-0.34034958 45.07040131 -0.34012299 44.04949402 -0.33988953 42.99765015 C-0.32440567 41.89240997 -0.30892181 40.7871698 -0.29296875 39.6484375 C-0.28872391 38.5192691 -0.28447906 37.39010071 -0.28010559 36.22671509 C-0.26327132 32.60923727 -0.22560975 28.99231031 -0.1875 25.375 C-0.17245934 22.92709136 -0.15876986 20.47917402 -0.14648438 18.03125 C-0.11335214 12.02062009 -0.06153674 6.01040353 0 0 Z M14 36 C15 38 15 38 15 38 Z " fill="#1D1D1D" transform="translate(244,5)"/>
<path d="M0 0 C0.99 8.25 1.98 16.5 3 25 C3.61766873 17.52111951 3.61766873 17.52111951 4.22631836 10.04150391 C4.34438843 8.64810791 4.34438843 8.64810791 4.46484375 7.2265625 C4.543396 6.27346191 4.62194824 5.32036133 4.70288086 4.33837891 C5 2 5 2 6 0 C10.29 0 14.58 0 19 0 C17.61804367 13.56829847 16.13459391 27.09857613 13.9375 40.5625 C13.77540039 41.58408203 13.61330078 42.60566406 13.44628906 43.65820312 C13.28741211 44.59728516 13.12853516 45.53636719 12.96484375 46.50390625 C12.8268335 47.32705322 12.68882324 48.1502002 12.54663086 48.99829102 C12 51 12 51 10 53 C7.29077199 53.19852102 4.70696821 53.27839477 2 53.25 C1.26265625 53.25773437 0.5253125 53.26546875 -0.234375 53.2734375 C-5.7466804 53.2533196 -5.7466804 53.2533196 -8 51 C-8.52757219 47.99208754 -8.94444503 45.04160189 -9.2890625 42.01171875 C-9.39721283 41.11636917 -9.50536316 40.22101959 -9.61679077 39.29853821 C-9.84427616 37.40173614 -10.06760224 35.50443135 -10.28710938 33.60668945 C-10.62255087 30.70865913 -10.97026198 27.81231393 -11.3203125 24.91601562 C-11.53978677 23.07300277 -11.75855963 21.22990623 -11.9765625 19.38671875 C-12.07965729 18.52197433 -12.18275208 17.65722992 -12.28897095 16.76628113 C-12.74266062 12.82268399 -13.13298759 8.97795324 -13 5 C-13.66 5 -14.32 5 -15 5 C-15 3.35 -15 1.7 -15 0 C-9.37467318 -1.29815234 -6.27437361 -0.69715262 0 0 Z " fill="#1B1B1B" transform="translate(24,5)"/>
<path d="M0 0 C4.62 0 9.24 0 14 0 C14.99 8.25 15.98 16.5 17 25 C17.61812918 17.14699201 17.61812918 17.14699201 18.22631836 9.29321289 C18.34438843 7.83516235 18.34438843 7.83516235 18.46484375 6.34765625 C18.543396 5.34742432 18.62194824 4.34719238 18.70288086 3.31665039 C19 1 19 1 20 0 C22.18639453 -0.07258946 24.37500389 -0.08373783 26.5625 -0.0625 C28.35880859 -0.04896484 28.35880859 -0.04896484 30.19140625 -0.03515625 C31.11824219 -0.02355469 32.04507813 -0.01195312 33 0 C32.1906307 6.44233989 31.37177083 12.88342293 30.54638672 19.32373047 C30.2668687 21.5135582 29.98950268 23.70366176 29.71435547 25.89404297 C29.31787179 29.04730485 28.91359064 32.19948489 28.5078125 35.3515625 C28.3868924 36.32678864 28.26597229 37.30201477 28.14138794 38.30679321 C26.56000892 50.43999108 26.56000892 50.43999108 24 53 C21.34177343 53.12658222 18.72112576 53.18520214 16.0625 53.1875 C15.32064453 53.19974609 14.57878906 53.21199219 13.81445312 53.22460938 C11.87486371 53.22988478 9.9357629 53.12188902 8 53 C5.63327862 50.63327862 5.62712454 49.76661582 5.22216797 46.52197266 C5.10219452 45.59405914 4.98222107 44.66614563 4.85861206 43.71011353 C4.6772319 42.20231827 4.6772319 42.20231827 4.4921875 40.6640625 C4.36184113 39.63316498 4.23149475 38.60226746 4.09719849 37.54013062 C3.82268518 35.35667942 3.55228068 33.17270836 3.28564453 30.98828125 C2.87740568 27.64470316 2.45744294 24.30276754 2.03515625 20.9609375 C1.77014546 18.84123172 1.50580049 16.72144257 1.2421875 14.6015625 C1.11721893 13.60041412 0.99225037 12.59926575 0.86349487 11.56777954 C0.74982574 10.63356171 0.63615662 9.69934387 0.51904297 8.73681641 C0.41848602 7.91678131 0.31792908 7.09674622 0.21432495 6.25186157 C0 4 0 4 0 0 Z " fill="#1B1B1B" transform="translate(122,5)"/>
<path d="M0 0 C7.26 0 14.52 0 22 0 C23.20272819 2.40545638 23.10071472 3.94996953 23.0625 6.625 C23.05347656 7.44226563 23.04445312 8.25953125 23.03515625 9.1015625 C23.02355469 9.72804688 23.01195312 10.35453125 23 11 C22.43410156 11.14695312 21.86820313 11.29390625 21.28515625 11.4453125 C19.02588015 12.13619834 17.04881905 12.81748922 15 14 C13.85968434 17.07797583 13.85968434 17.07797583 14 20 C16.64 20 19.28 20 22 20 C22.05395478 21.62463842 22.09277195 23.24978541 22.125 24.875 C22.14820313 25.77992187 22.17140625 26.68484375 22.1953125 27.6171875 C22 30 22 30 20 32 C17.375 32.125 17.375 32.125 15 32 C14.67 34.64 14.34 37.28 14 40 C16.97 40 19.94 40 23 40 C23.05391993 41.79133978 23.09275571 43.58313899 23.125 45.375 C23.14820313 46.37273438 23.17140625 47.37046875 23.1953125 48.3984375 C23 51 23 51 21 53 C19.06054688 53.24291992 19.06054688 53.24291992 16.71875 53.23046875 C15.45611328 53.22756836 15.45611328 53.22756836 14.16796875 53.22460938 C12.84732422 53.20624023 12.84732422 53.20624023 11.5 53.1875 C10.61957031 53.18685547 9.73914063 53.18621094 8.83203125 53.18554688 C2.28080115 53.14040057 2.28080115 53.14040057 0 52 C0 34.84 0 17.68 0 0 Z " fill="#101010" transform="translate(188,5)"/>
<path d="M0 0 C4.29 0 8.58 0 13 0 C14.1310695 7.89953299 14.15259979 15.74964523 14.13037109 23.7109375 C14.12501206 25.99485919 14.13034184 28.27858428 14.13671875 30.5625 C14.1404436 37.75812452 14.12918053 44.8750299 13 52 C11.34346314 53.65653686 9.39349204 53.17106165 7.125 53.1875 C6.24070312 53.20167969 5.35640625 53.21585938 4.4453125 53.23046875 C2 53 2 53 -1 51 C-1.36749268 48.91271973 -1.36749268 48.91271973 -1.35644531 46.30664062 C-1.35944641 45.33223022 -1.36244751 44.35781982 -1.36553955 43.35388184 C-1.35319275 42.29866333 -1.34084595 41.24344482 -1.328125 40.15625 C-1.32625183 39.07621704 -1.32437866 37.99618408 -1.32244873 36.88342285 C-1.31571757 34.5968925 -1.30178216 32.31037386 -1.28125 30.02392578 C-1.25012894 26.5145402 -1.24028409 23.00560355 -1.234375 19.49609375 C-1.22520403 17.27864033 -1.21482796 15.0611915 -1.203125 12.84375 C-1.19887512 11.78853149 -1.19462524 10.73331299 -1.19024658 9.64611816 C-1.18063904 8.67170776 -1.17103149 7.69729736 -1.16113281 6.69335938 C-1.15430481 5.83335327 -1.14747681 4.97334717 -1.14044189 4.08728027 C-1 2 -1 2 0 0 Z " fill="#242424" transform="translate(76,5)"/>
<path d="M0 0 C2.09715785 3.14573677 2.52004559 5.01456251 3.125 8.6875 C3.29257812 9.68136719 3.46015625 10.67523438 3.6328125 11.69921875 C3.75398438 12.45847656 3.87515625 13.21773437 4 14 C3.01 14.495 3.01 14.495 2 15 C1.59270772 17.32156597 1.25561323 19.6568787 1 22 C0.67 22 0.34 22 0 22 C0 14.74 0 7.48 0 0 Z M1 7 C2 9 2 9 2 9 Z " fill="#AFAFAF" transform="translate(257,34)"/>
<path d="M0 0 C0.33 0 0.66 0 1 0 C1 2.97 1 5.94 1 9 C-0.299375 9.37125 -1.59875 9.7425 -2.9375 10.125 C-5.14598516 10.85908827 -5.14598516 10.85908827 -7 12 C-8.14031566 15.07797583 -8.14031566 15.07797583 -8 18 C-8.33 18 -8.66 18 -9 18 C-9 14.7 -9 11.4 -9 8 C-6.03 8 -3.06 8 0 8 C0 5.36 0 2.72 0 0 Z " fill="#CACACA" transform="translate(210,7)"/>
<path d="M0 0 C2.64 0 5.28 0 8 0 C7.67 0.66 7.34 1.32 7 2 C5.35 2 3.7 2 2 2 C1.67 4.64 1.34 7.28 1 10 C3.97 10 6.94 10 10 10 C10 10.33 10 10.66 10 11 C6.7 11 3.4 11 0 11 C0 7.37 0 3.74 0 0 Z " fill="#E9E9E9" transform="translate(201,35)"/>
<path d="M0 0 C0.33 0 0.66 0 1 0 C1.144375 1.134375 1.28875 2.26875 1.4375 3.4375 C1.61171478 6.80777201 1.61171478 6.80777201 3 8 C2.90982004 10.19050021 2.75333792 12.378466 2.5625 14.5625 C2.46066406 15.76003906 2.35882812 16.95757812 2.25390625 18.19140625 C2.17011719 19.11824219 2.08632813 20.04507813 2 21 C1.67 21 1.34 21 1 21 C0.07907719 16.34462644 -0.12205997 11.85314567 -0.0625 7.125 C-0.05798828 6.43664062 -0.05347656 5.74828125 -0.04882812 5.0390625 C-0.03716336 3.35933665 -0.01923271 1.67965625 0 0 Z " fill="#AFAFAF" transform="translate(25,23)"/>
</svg>
